<?xml version="1.0" encoding="utf-8"?>
<!-- Generator: Adobe Illustrator 26.0.1, SVG Export Plug-In . SVG Version: 6.00 Build 0)  -->
<svg version="1.1" id="Layer_1" xmlns="http://www.w3.org/2000/svg" xmlns:xlink="http://www.w3.org/1999/xlink" x="0px" y="0px"
	 viewBox="0 0 151 45.21" style="enable-background:new 0 0 151 45.21;" xml:space="preserve">
<style type="text/css">
	.st0{fill:#4CA7FC;}
	.st1{fill:#FFFFFF;}
</style>
<g id="Group_2" transform="translate(-738 -405.15)">
	<g id="Group_1" transform="translate(879.35 409.106)">
		<rect id="Rectangle_1" x="-0.35" y="-0.11" class="st0" width="10" height="9"/>
		<rect id="Rectangle_2" x="-0.35" y="11.89" class="st1" width="10" height="29"/>
	</g>
	<path id="Path_1" class="st1" d="M752.07,405.15H738v45.11h9.13v-33.88l11.16,33.88h9.87L780,416.38v33.88h9.13v-45.11h-14
		l-11.84,35.24L752.07,405.15z"/>
	<path id="Path_2" class="st1" d="M791.43,405.25v45.11h19.14c5.75,0,8.25-0.2,10.62-0.88c5.27-1.42,8.52-4.67,10.21-10.08
		c1.14-3.73,1.73-7.6,1.76-11.5c0-6.97-1.89-13.59-4.8-16.84c-3.59-4.12-8.73-5.81-17.79-5.81H791.43z M801.03,413.3h9.54
		c3.99,0,6.22,0.68,8.12,2.3c2.37,2.1,3.92,6.9,3.92,12.24c0,4.8-1.29,9.4-3.31,11.7c-1.56,1.76-4.66,2.77-8.72,2.77h-9.54V413.3z"
		/>
	<path id="Path_3" class="st1" d="M836.88,450.26h22.66c6.97,0,9.81-0.47,12.11-2.03c3.51-2.65,5.52-6.83,5.41-11.23
		c0-4.13-1.42-8.12-3.65-10.21c-2.64-2.5-6.09-3.45-12.58-3.45h-7.24c-3.52,0-5-0.27-6.22-1.01c-1.33-0.95-2.09-2.5-2.03-4.13
		c-0.13-1.75,0.73-3.42,2.23-4.33c1.08-0.54,2.64-0.68,6.83-0.68h20.15v-8.05h-22.32c-5.55,0-7.91,0.27-10.08,1.08
		c-4.46,1.69-7.44,6.63-7.44,12.24c-0.06,3.89,1.6,7.6,4.53,10.14c2.3,1.89,5.82,2.77,11.02,2.77h8.32c1.71-0.12,3.43,0.18,5,0.88
		c1.75,0.92,2.83,2.76,2.77,4.73c0.07,1.73-0.85,3.36-2.37,4.19c-1.15,0.74-3.11,1.01-6.56,1.01h-20.56V450.26z"/>
</g>
</svg>
