<?xml version="1.0" encoding="utf-8"?>
<!-- Generator: Adobe Illustrator 26.0.1, SVG Export Plug-In . SVG Version: 6.00 Build 0)  -->
<svg version="1.1" id="Layer_1" xmlns="http://www.w3.org/2000/svg" xmlns:xlink="http://www.w3.org/1999/xlink" x="0px" y="0px"
	 viewBox="0 0 400 400" style="enable-background:new 0 0 400 400;" xml:space="preserve">
<style type="text/css">
	.st0{opacity:0.13;}
	.st1{fill:none;}
	.st2{fill:#0682F6;}
	.st3{opacity:0.13;fill:#0682F6;enable-background:new    ;}
</style>
<g id="Path_5" class="st0">
	<path class="st1" d="M-91.34,21.23H95.23c94.65,0,171.39,76.73,171.39,171.39S189.89,364,95.23,364H-91.34
		c-94.65,0-171.39-76.73-171.39-171.39S-185.99,21.23-91.34,21.23z"/>
	<path class="st2" d="M-91.34,42.92c-82.54,0-149.69,67.15-149.69,149.69s67.15,149.69,149.69,149.69H95.23
		c82.54,0,149.69-67.15,149.69-149.69S177.77,42.92,95.23,42.92H-91.34 M-91.34,21.23H95.23c94.65,0,171.39,76.73,171.39,171.39
		S189.89,364,95.23,364H-91.34c-94.65,0-171.39-76.73-171.39-171.39S-185.99,21.23-91.34,21.23z"/>
</g>
<path id="Union_3" class="st3" d="M73.11,288.47c0-10.63,8.62-19.25,19.25-19.25c5.88,0,11.44,2.69,15.1,7.3
	c0.01,0.01,0.03,0.02,0.04,0.02l4.39,0c43,0,78.51-32.66,83.04-74.47c0.56-5.14,4.85-9.06,10.02-9.06h1.56
	c6.01,0,10.65,5.23,10.02,11.21c-0.36,3.35-0.87,6.69-1.55,9.99c-2.76,13.46-8.14,26.24-15.83,37.62
	c-11.42,16.92-27.5,30.16-46.29,38.12c-6.37,2.69-12.98,4.74-19.75,6.13c-6.98,1.42-14.08,2.14-21.2,2.14l-2.9,0
	c-0.02,0-0.04,0.01-0.05,0.03c-5.4,9.14-17.18,12.19-26.34,6.81C76.72,301.6,73.11,295.29,73.11,288.47L73.11,288.47z
	 M-71.97,298.23c-7.12,0-14.23-0.71-21.21-2.14c-13.46-2.76-26.24-8.14-37.62-15.83c-16.92-11.42-30.16-27.5-38.12-46.29
	c-2.69-6.36-4.74-12.98-6.13-19.75c-2.85-13.99-2.85-28.42,0-42.41c2.76-13.46,8.14-26.24,15.83-37.62
	c11.42-16.92,27.5-30.16,46.29-38.12c6.36-2.69,12.98-4.74,19.75-6.13c6.98-1.42,14.08-2.14,21.21-2.14h183.86
	c37.7,0.02,72.04,20.12,90.74,51.92c3.85,6.54-0.79,14.79-8.38,14.79h-2.55c-3.41,0-6.57-1.77-8.33-4.69
	c-15.03-24.94-42.11-40.36-71.48-40.33H-70.82c-46.9,0-85.49,38.13-84.66,85.03c0.8,45.36,37.96,82.02,83.51,82.02H37.14
	c5.79,0,10.48,4.69,10.48,10.48v0.8c0,5.75-4.66,10.42-10.42,10.42H-71.97z"/>
<path id="Union_4" class="st3" d="M24.57,230.43c0-10.48,8.49-18.98,18.98-18.99c6.45,0,12.45,3.27,15.95,8.68H83.1
	c5.86,0,10.62,4.75,10.62,10.62v0.46c0,5.86-4.75,10.62-10.62,10.62H58.73c-6.29,8.39-18.19,10.09-26.58,3.8
	C27.38,242.04,24.57,236.41,24.57,230.43z M114.87,233.03v-4.11c0-4.85,3.94-8.79,8.79-8.79h0.14c14.3,0,26.59-10.85,27.61-25.12
	c1.14-15.88-11.41-29.12-27.05-29.12h-76.1c-5.45,0-9.86-4.42-9.86-9.86v-1.97c0-5.45,4.42-9.86,9.86-9.86h76.1
	c9.73-0.02,19.23,2.89,27.29,8.34c7.85,5.3,13.99,12.76,17.68,21.48c6.43,15.2,4.74,32.62-4.5,46.29
	c-5.3,7.85-12.76,13.99-21.48,17.69c-6.01,2.54-12.47,3.85-19,3.84h-0.7C118.8,241.82,114.87,237.89,114.87,233.03z"/>
</svg>
